<svg width="32" height="32" viewBox="0 0 32 32" fill="none" xmlns="http://www.w3.org/2000/svg">
<path d="M16 31C24.2843 31 31 24.2843 31 16C31 7.71573 24.2843 1 16 1C7.71573 1 1 7.71573 1 16C1 24.2843 7.71573 31 16 31Z" fill="#252525"/>
<path d="M16 10L10 16L16 22" fill="#252525"/>
<path d="M16 10L10 16M10 16L16 22M10 16H22M31 16C31 24.2843 24.2843 31 16 31C7.71573 31 1 24.2843 1 16C1 7.71573 7.71573 1 16 1C24.2843 1 31 7.71573 31 16Z" stroke="#F4D011" stroke-width="2" stroke-linecap="round" stroke-linejoin="round"/>
</svg>
