<svg width="174" height="56" viewBox="0 0 174 56" fill="none" xmlns="http://www.w3.org/2000/svg">
<path d="M63.9083 21.8H66.5003V33H63.9083V21.8Z" fill="white"/>
<path d="M78.7743 24.264C79.841 24.264 80.6997 24.584 81.3503 25.224C82.0117 25.864 82.3423 26.8133 82.3423 28.072V33H79.8463V28.456C79.8463 27.7733 79.697 27.2667 79.3983 26.936C79.0996 26.5947 78.6676 26.424 78.1023 26.424C77.473 26.424 76.9716 26.6213 76.5983 27.016C76.225 27.4 76.0383 27.976 76.0383 28.744V33H73.5423V24.392H75.9263V25.4C76.257 25.0373 76.6676 24.76 77.1583 24.568C77.649 24.3653 78.1876 24.264 78.7743 24.264Z" fill="white"/>
<path d="M91.9008 24.584H94.1088V26.504H91.9648V33H89.4688V26.504H88.1408V24.584H89.4688V24.2C89.4688 23.2187 89.7568 22.44 90.3328 21.864C90.9195 21.288 91.7408 21 92.7968 21C93.1702 21 93.5221 21.0427 93.8528 21.128C94.1941 21.2027 94.4768 21.3147 94.7008 21.464L94.0448 23.272C93.7568 23.0693 93.4208 22.968 93.0368 22.968C92.2795 22.968 91.9008 23.384 91.9008 24.216V24.584Z" fill="white"/>
<path d="M100.7 33.128C100.263 33.128 99.8947 32.9787 99.5961 32.68C99.2974 32.3813 99.1481 32.008 99.1481 31.56C99.1481 31.1013 99.2974 30.7333 99.5961 30.456C99.8947 30.168 100.263 30.024 100.7 30.024C101.137 30.024 101.505 30.168 101.804 30.456C102.103 30.7333 102.252 31.1013 102.252 31.56C102.252 32.008 102.103 32.3813 101.804 32.68C101.505 32.9787 101.137 33.128 100.7 33.128Z" fill="white"/>
<path d="M113.727 33.192C112.586 33.192 111.551 32.9467 110.623 32.456C109.706 31.9547 108.98 31.2667 108.447 30.392C107.924 29.5067 107.663 28.5093 107.663 27.4C107.663 26.2907 107.924 25.2987 108.447 24.424C108.98 23.5387 109.706 22.8507 110.623 22.36C111.551 21.8587 112.591 21.608 113.743 21.608C114.714 21.608 115.588 21.7787 116.367 22.12C117.156 22.4613 117.818 22.952 118.351 23.592L116.687 25.128C115.93 24.2533 114.991 23.816 113.871 23.816C113.178 23.816 112.559 23.9707 112.015 24.28C111.471 24.5787 111.044 25 110.735 25.544C110.436 26.088 110.287 26.7067 110.287 27.4C110.287 28.0933 110.436 28.712 110.735 29.256C111.044 29.8 111.471 30.2267 112.015 30.536C112.559 30.8347 113.178 30.984 113.871 30.984C114.991 30.984 115.93 30.5413 116.687 29.656L118.351 31.192C117.818 31.8427 117.156 32.3387 116.367 32.68C115.578 33.0213 114.698 33.192 113.727 33.192Z" fill="white"/>
<path d="M128.16 33.128C127.253 33.128 126.437 32.9413 125.712 32.568C124.997 32.184 124.437 31.656 124.032 30.984C123.626 30.312 123.424 29.5493 123.424 28.696C123.424 27.8427 123.626 27.08 124.032 26.408C124.437 25.736 124.997 25.2133 125.712 24.84C126.437 24.456 127.253 24.264 128.16 24.264C129.066 24.264 129.877 24.456 130.592 24.84C131.306 25.2133 131.866 25.736 132.272 26.408C132.677 27.08 132.88 27.8427 132.88 28.696C132.88 29.5493 132.677 30.312 132.272 30.984C131.866 31.656 131.306 32.184 130.592 32.568C129.877 32.9413 129.066 33.128 128.16 33.128ZM128.16 31.08C128.8 31.08 129.322 30.8667 129.728 30.44C130.144 30.0027 130.352 29.4213 130.352 28.696C130.352 27.9707 130.144 27.3947 129.728 26.968C129.322 26.5307 128.8 26.312 128.16 26.312C127.52 26.312 126.992 26.5307 126.576 26.968C126.16 27.3947 125.952 27.9707 125.952 28.696C125.952 29.4213 126.16 30.0027 126.576 30.44C126.992 30.8667 127.52 31.08 128.16 31.08Z" fill="white"/>
<path d="M147.78 24.392V33H145.412V31.976C145.081 32.3493 144.687 32.6373 144.228 32.84C143.769 33.032 143.273 33.128 142.74 33.128C141.609 33.128 140.713 32.8027 140.052 32.152C139.391 31.5013 139.06 30.536 139.06 29.256V24.392H141.556V28.888C141.556 30.2747 142.137 30.968 143.3 30.968C143.897 30.968 144.377 30.776 144.74 30.392C145.103 29.9973 145.284 29.416 145.284 28.648V24.392H147.78Z" fill="white"/>
<path d="M157.036 25.528C157.335 25.112 157.735 24.7973 158.236 24.584C158.748 24.3707 159.335 24.264 159.996 24.264V26.568C159.719 26.5467 159.532 26.536 159.436 26.536C158.722 26.536 158.162 26.7387 157.756 27.144C157.351 27.5387 157.148 28.136 157.148 28.936V33H154.652V24.392H157.036V25.528Z" fill="white"/>
<path d="M168.968 33.128C168.253 33.128 167.554 33.0427 166.872 32.872C166.189 32.6907 165.645 32.4667 165.24 32.2L166.072 30.408C166.456 30.6533 166.92 30.856 167.464 31.016C168.008 31.1653 168.541 31.24 169.064 31.24C170.12 31.24 170.648 30.9787 170.648 30.456C170.648 30.2107 170.504 30.0347 170.216 29.928C169.928 29.8213 169.485 29.7307 168.888 29.656C168.184 29.5493 167.602 29.4267 167.144 29.288C166.685 29.1493 166.285 28.904 165.944 28.552C165.613 28.2 165.448 27.6987 165.448 27.048C165.448 26.504 165.602 26.024 165.912 25.608C166.232 25.1813 166.69 24.8507 167.288 24.616C167.896 24.3813 168.61 24.264 169.432 24.264C170.04 24.264 170.642 24.3333 171.24 24.472C171.848 24.6 172.349 24.7813 172.744 25.016L171.912 26.792C171.154 26.3653 170.328 26.152 169.432 26.152C168.898 26.152 168.498 26.2267 168.232 26.376C167.965 26.5253 167.832 26.7173 167.832 26.952C167.832 27.2187 167.976 27.4053 168.264 27.512C168.552 27.6187 169.01 27.72 169.64 27.816C170.344 27.9333 170.92 28.0613 171.368 28.2C171.816 28.328 172.205 28.568 172.536 28.92C172.866 29.272 173.032 29.7627 173.032 30.392C173.032 30.9253 172.872 31.4 172.552 31.816C172.232 32.232 171.762 32.5573 171.144 32.792C170.536 33.016 169.81 33.128 168.968 33.128Z" fill="white"/>
<path d="M33.6 14V19.6H30.8V36.4H33.6V42H22.4V36.4H25.2V19.6H22.4V14H33.6ZM28 0C31.677 0 35.318 0.724241 38.7151 2.13137C42.1123 3.5385 45.1989 5.60097 47.799 8.20101C50.399 10.8011 52.4615 13.8877 53.8686 17.2849C55.2758 20.682 56 24.323 56 28C56 35.4261 53.05 42.548 47.799 47.799C42.548 53.05 35.4261 56 28 56C24.323 56 20.682 55.2758 17.2849 53.8686C13.8877 52.4615 10.8011 50.399 8.20101 47.799C2.94999 42.548 0 35.4261 0 28C0 20.5739 2.94999 13.452 8.20101 8.20101C13.452 2.94999 20.5739 0 28 0ZM28 5.6C22.0592 5.6 16.3616 7.95999 12.1608 12.1608C7.95999 16.3616 5.6 22.0592 5.6 28C5.6 33.9408 7.95999 39.6384 12.1608 43.8392C16.3616 48.04 22.0592 50.4 28 50.4C33.9408 50.4 39.6384 48.04 43.8392 43.8392C48.04 39.6384 50.4 33.9408 50.4 28C50.4 22.0592 48.04 16.3616 43.8392 12.1608C39.6384 7.95999 33.9408 5.6 28 5.6Z" fill="url(#paint0_linear_56_89)"/>
<defs>
<linearGradient id="paint0_linear_56_89" x1="28" y1="56" x2="28" y2="4.00936e-07" gradientUnits="userSpaceOnUse">
<stop stop-color="#FFC737"/>
<stop offset="1" stop-color="#F4D011"/>
</linearGradient>
</defs>
</svg>
