<svg width="229" height="87" viewBox="0 0 229 87" fill="none" xmlns="http://www.w3.org/2000/svg">
<path d="M52.2 21.75V30.45H47.85V56.55H52.2V65.25H34.8V56.55H39.15V30.45H34.8V21.75H52.2ZM43.5 0C49.2125 0 54.8691 1.12516 60.1467 3.31124C65.4244 5.49732 70.2198 8.70151 74.2591 12.7409C78.2985 16.7802 81.5027 21.5756 83.6888 26.8533C85.8748 32.1309 87 37.7875 87 43.5C87 55.0369 82.417 66.1013 74.2591 74.2591C66.1013 82.417 55.0369 87 43.5 87C37.7875 87 32.1309 85.8748 26.8533 83.6888C21.5756 81.5027 16.7802 78.2985 12.7409 74.2591C4.58302 66.1013 0 55.0369 0 43.5C0 31.9631 4.58302 20.8987 12.7409 12.7409C20.8987 4.58302 31.9631 0 43.5 0ZM43.5 8.7C34.2705 8.7 25.4189 12.3664 18.8927 18.8927C12.3664 25.4189 8.7 34.2705 8.7 43.5C8.7 52.7295 12.3664 61.5811 18.8927 68.1073C25.4189 74.6336 34.2705 78.3 43.5 78.3C52.7295 78.3 61.5811 74.6336 68.1073 68.1073C74.6336 61.5811 78.3 52.7295 78.3 43.5C78.3 34.2705 74.6336 25.4189 68.1073 18.8927C61.5811 12.3664 52.7295 8.7 43.5 8.7Z" fill="url(#paint0_linear_56_751)"/>
<path d="M97 38.9843H100.135V52.7638H97V38.9843Z" fill="white"/>
<path d="M114.983 42.0157C116.273 42.0157 117.311 42.4095 118.099 43.1968C118.899 43.9843 119.299 45.1522 119.299 46.7008V52.7638H116.279V47.1732C116.279 46.3333 116.099 45.71 115.737 45.3032C115.376 44.8832 114.853 44.6732 114.17 44.6732C113.408 44.6732 112.802 44.916 112.35 45.4016C111.899 45.874 111.673 46.5827 111.673 47.5276V52.7638H108.654V42.1732H111.537V43.4134C111.937 42.9672 112.434 42.626 113.028 42.3898C113.621 42.1404 114.273 42.0157 114.983 42.0157Z" fill="white"/>
<path d="M130.861 42.4095H133.532V44.7717H130.938V52.7638H127.919V44.7717H126.313V42.4095H127.919V41.937C127.919 40.7297 128.267 39.7717 128.964 39.063C129.674 38.3543 130.667 38 131.945 38C132.396 38 132.822 38.0525 133.222 38.1575C133.635 38.2493 133.977 38.3871 134.248 38.5709L133.454 40.7953C133.106 40.5459 132.699 40.4213 132.235 40.4213C131.319 40.4213 130.861 40.9331 130.861 41.9567V42.4095Z" fill="white"/>
<path d="M141.505 52.9213C140.976 52.9213 140.531 52.7375 140.169 52.3701C139.808 52.0026 139.627 51.5433 139.627 50.9921C139.627 50.4278 139.808 49.9751 140.169 49.6339C140.531 49.2795 140.976 49.1024 141.505 49.1024C142.034 49.1024 142.479 49.2795 142.84 49.6339C143.202 49.9751 143.382 50.4278 143.382 50.9921C143.382 51.5433 143.202 52.0026 142.84 52.3701C142.479 52.7375 142.034 52.9213 141.505 52.9213Z" fill="white"/>
<path d="M157.263 53C155.882 53 154.631 52.6982 153.508 52.0945C152.398 51.4777 151.521 50.6312 150.876 49.5551C150.244 48.4659 149.928 47.2388 149.928 45.874C149.928 44.5092 150.244 43.2887 150.876 42.2126C151.521 41.1234 152.398 40.2769 153.508 39.6732C154.631 39.0564 155.889 38.748 157.282 38.748C158.456 38.748 159.514 38.958 160.456 39.378C161.411 39.7979 162.211 40.4016 162.856 41.189L160.843 43.0787C159.927 42.0026 158.792 41.4646 157.437 41.4646C156.598 41.4646 155.85 41.6549 155.192 42.0354C154.534 42.4029 154.018 42.9213 153.644 43.5906C153.282 44.2598 153.102 45.021 153.102 45.874C153.102 46.727 153.282 47.4882 153.644 48.1575C154.018 48.8268 154.534 49.3517 155.192 49.7323C155.85 50.0997 156.598 50.2835 157.437 50.2835C158.792 50.2835 159.927 49.7388 160.843 48.6496L162.856 50.5394C162.211 51.3399 161.411 51.9501 160.456 52.3701C159.501 52.79 158.437 53 157.263 53Z" fill="white"/>
<path d="M174.721 52.9213C173.624 52.9213 172.637 52.6916 171.76 52.2323C170.895 51.7598 170.218 51.1102 169.727 50.2835C169.237 49.4567 168.992 48.5184 168.992 47.4685C168.992 46.4186 169.237 45.4803 169.727 44.6535C170.218 43.8268 170.895 43.1837 171.76 42.7244C172.637 42.252 173.624 42.0157 174.721 42.0157C175.818 42.0157 176.798 42.252 177.663 42.7244C178.527 43.1837 179.205 43.8268 179.695 44.6535C180.185 45.4803 180.43 46.4186 180.43 47.4685C180.43 48.5184 180.185 49.4567 179.695 50.2835C179.205 51.1102 178.527 51.7598 177.663 52.2323C176.798 52.6916 175.818 52.9213 174.721 52.9213ZM174.721 50.4016C175.495 50.4016 176.127 50.1391 176.618 49.6142C177.121 49.0761 177.372 48.3609 177.372 47.4685C177.372 46.5761 177.121 45.8675 176.618 45.3425C176.127 44.8045 175.495 44.5354 174.721 44.5354C173.947 44.5354 173.308 44.8045 172.805 45.3425C172.302 45.8675 172.05 46.5761 172.05 47.4685C172.05 48.3609 172.302 49.0761 172.805 49.6142C173.308 50.1391 173.947 50.4016 174.721 50.4016Z" fill="white"/>
<path d="M198.454 42.1732V52.7638H195.59V51.5039C195.19 51.9633 194.713 52.3176 194.158 52.5669C193.603 52.8032 193.003 52.9213 192.358 52.9213C190.99 52.9213 189.906 52.521 189.106 51.7205C188.306 50.9199 187.906 49.7323 187.906 48.1575V42.1732H190.926V47.7047C190.926 49.4108 191.629 50.2638 193.035 50.2638C193.758 50.2638 194.339 50.0276 194.777 49.5551C195.216 49.0696 195.435 48.3543 195.435 47.4094V42.1732H198.454Z" fill="white"/>
<path d="M209.651 43.5709C210.013 43.0591 210.497 42.6719 211.103 42.4095C211.722 42.147 212.432 42.0157 213.232 42.0157V44.8504C212.896 44.8242 212.671 44.811 212.555 44.811C211.69 44.811 211.013 45.0604 210.522 45.5591C210.032 46.0446 209.787 46.7795 209.787 47.7638V52.7638H206.768V42.1732H209.651V43.5709Z" fill="white"/>
<path d="M224.084 52.9213C223.22 52.9213 222.374 52.8163 221.549 52.6063C220.723 52.3832 220.065 52.1076 219.574 51.7795L220.581 49.5748C221.045 49.8766 221.607 50.126 222.265 50.3228C222.923 50.5066 223.568 50.5984 224.2 50.5984C225.478 50.5984 226.116 50.2769 226.116 49.6339C226.116 49.332 225.942 49.1155 225.594 48.9843C225.245 48.853 224.71 48.7415 223.987 48.6496C223.136 48.5184 222.432 48.3675 221.878 48.1968C221.323 48.0262 220.839 47.7244 220.426 47.2913C220.026 46.8583 219.826 46.2415 219.826 45.4409C219.826 44.7717 220.013 44.1811 220.387 43.6693C220.774 43.1444 221.329 42.7375 222.052 42.4488C222.787 42.1601 223.652 42.0157 224.645 42.0157C225.381 42.0157 226.11 42.1011 226.832 42.2717C227.568 42.4291 228.174 42.6522 228.652 42.9409L227.645 45.126C226.729 44.6011 225.729 44.3386 224.645 44.3386C224 44.3386 223.516 44.4304 223.194 44.6142C222.871 44.7979 222.71 45.0341 222.71 45.3228C222.71 45.6509 222.884 45.8806 223.232 46.0118C223.581 46.143 224.136 46.2677 224.897 46.3858C225.748 46.5302 226.445 46.6877 226.987 46.8583C227.529 47.0157 228 47.311 228.4 47.7441C228.8 48.1772 229 48.7808 229 49.5551C229 50.2113 228.806 50.7953 228.419 51.3071C228.032 51.8189 227.465 52.2192 226.716 52.5079C225.981 52.7835 225.103 52.9213 224.084 52.9213Z" fill="white"/>
<defs>
<linearGradient id="paint0_linear_56_751" x1="114.5" y1="87" x2="114.5" y2="6.22881e-07" gradientUnits="userSpaceOnUse">
<stop stop-color="#FFC737"/>
<stop offset="1" stop-color="#F4D011"/>
</linearGradient>
</defs>
</svg>
