<svg width="20" height="20" viewBox="0 0 20 20" fill="none" xmlns="http://www.w3.org/2000/svg">
<path d="M9.47362 0.002336C7.78254 0.0217139 4.14687 0.285504 2.11337 2.0564C0.600759 3.47911 0.0726281 5.58256 0.0107275 8.18358C-0.0406368 10.7752 -0.102538 15.6422 4.83963 16.9674V18.9858C4.83963 18.9858 4.80868 19.7935 5.37106 19.9591C6.06382 20.1673 6.45827 19.5459 7.11678 18.8783L8.34492 17.56C11.7264 17.8269 14.3163 17.2118 14.6147 17.1206C15.3008 16.9124 19.1657 16.4436 19.7972 11.576C20.4452 6.54896 19.4818 3.3816 17.7426 1.94888H17.7321C17.2072 1.49006 15.098 0.0310904 10.3857 0.0148379C10.3857 0.0148379 10.036 -0.00704043 9.47362 0.002336ZM9.53157 1.41568C10.0116 1.41255 10.3033 1.43193 10.3033 1.43193C14.292 1.44193 16.1958 2.58148 16.6449 2.96529C18.1094 4.15672 18.8641 7.01215 18.3116 11.209C17.7867 15.2784 14.6522 15.5359 14.072 15.7116C13.8251 15.7866 11.544 16.3204 8.67023 16.1448C8.67023 16.1448 6.53005 18.5964 5.86099 19.2278C5.75497 19.3384 5.63117 19.3709 5.55215 19.3547C5.43888 19.3284 5.40464 19.1953 5.41123 19.0127L5.43164 15.6628C1.24018 14.5627 1.48712 10.4114 1.5319 8.24296C1.58327 6.07451 2.01196 4.30049 3.28817 3.09906C5.00624 1.62446 8.09336 1.42568 9.53025 1.41568H9.53157ZM9.84765 3.58351C9.81316 3.58318 9.77893 3.58933 9.74695 3.60161C9.71497 3.6139 9.68587 3.63207 9.66132 3.65508C9.63678 3.67809 9.61727 3.70549 9.60393 3.73569C9.59059 3.76589 9.58367 3.7983 9.58359 3.83104C9.58359 3.97106 9.70344 4.08171 9.84765 4.08171C10.5006 4.06992 11.1495 4.18095 11.757 4.4084C12.3645 4.63584 12.9185 4.9752 13.3872 5.40691C14.344 6.28892 14.8102 7.4741 14.828 9.02371C14.828 9.1606 14.9446 9.27437 15.0921 9.27437V9.26437C15.1616 9.26454 15.2284 9.23861 15.2778 9.19224C15.3273 9.14587 15.3555 9.08282 15.3561 9.01683C15.3881 8.28744 15.2635 7.55949 14.9899 6.87723C14.7163 6.19498 14.2994 5.57266 13.7645 5.0481C12.7221 4.08108 11.4011 3.58288 9.84765 3.58288V3.58351ZM6.37661 4.15672C6.19022 4.13087 6.00012 4.16638 5.83794 4.25736H5.82412C5.44762 4.46685 5.10845 4.73163 4.81922 5.04185C4.57886 5.30564 4.44847 5.57256 4.41423 5.82947C4.39382 5.98262 4.40765 6.13577 4.45572 6.28204L4.47284 6.29204C4.74349 7.04716 5.09711 7.77352 5.5291 8.45737C6.08556 9.41811 6.77037 10.3066 7.56655 11.1009L7.59026 11.1334L7.62779 11.1597L7.6515 11.1859L7.67916 11.2084C8.51892 11.9664 9.45721 12.6195 10.4713 13.1518C11.6303 13.7507 12.3336 14.0338 12.7557 14.1514V14.1576C12.8795 14.1932 12.9921 14.2095 13.1053 14.2095C13.4651 14.1845 13.8056 14.0458 14.0727 13.8157C14.398 13.5411 14.6739 13.2178 14.8893 12.8587V12.8524C15.0914 12.4911 15.0229 12.1492 14.7312 11.9179C14.147 11.4331 13.5152 11.0026 12.8446 10.6321C12.3955 10.4008 11.9391 10.5408 11.7541 10.7752L11.3596 11.2472C11.1574 11.4816 10.79 11.4491 10.79 11.4491L10.7795 11.4553C8.03937 10.7909 7.30841 8.15733 7.30841 8.15733C7.30841 8.15733 7.27417 7.79915 7.5277 7.61662L8.02159 7.23906C8.25799 7.05653 8.42262 6.62397 8.16909 6.19703C7.78149 5.55953 7.3289 4.95968 6.81782 4.40613C6.70609 4.27563 6.54934 4.18684 6.37529 4.15547L6.37661 4.15672ZM10.3033 4.89933C9.95368 4.89933 9.95367 5.40066 10.3066 5.40066C10.7414 5.40735 11.1706 5.49532 11.5696 5.65953C11.9685 5.82374 12.3295 6.06098 12.6319 6.35768C12.9077 6.64648 13.1196 6.98489 13.2551 7.35285C13.3906 7.72082 13.447 8.11087 13.4208 8.49988C13.422 8.56571 13.4503 8.62848 13.4996 8.67475C13.549 8.72101 13.6155 8.7471 13.6848 8.74742L13.6954 8.76054C13.7652 8.76005 13.8321 8.73349 13.8815 8.68658C13.9309 8.63968 13.9589 8.57621 13.9594 8.50988C13.9831 7.5166 13.6578 6.68335 13.0197 6.01575C12.3783 5.34815 11.4834 4.97372 10.3409 4.89933H10.3033ZM10.736 6.24704C10.3758 6.23703 10.362 6.74836 10.7189 6.75836C11.5868 6.80087 12.0082 7.21718 12.0636 8.07356C12.0648 8.13857 12.0927 8.20054 12.1415 8.24622C12.1902 8.2919 12.2558 8.31766 12.3243 8.31798H12.3349C12.3701 8.31654 12.4046 8.30847 12.4365 8.29422C12.4684 8.27997 12.497 8.25983 12.5206 8.23498C12.5442 8.21014 12.5624 8.18108 12.574 8.1495C12.5856 8.11792 12.5905 8.08445 12.5884 8.05106C12.5265 6.93464 11.8851 6.3058 10.7465 6.24766H10.736V6.24704Z" fill="white"/>
</svg>
